<svg xmlns="http://www.w3.org/2000/svg" viewBox="0 0 24 24" width="24" height="24">
	<path style="fill: #AAAFB2" d="M12.8,0c0,0,0.1,0,0.1,0c0.5,0,1,0.2,1.4,0.4c0.7,0.4,1.4,0.8,2.1,1.3c1.5,0.9,3,1.8,4.6,2.7c0.1,0,0.1,0.1,0.2,0.1
		c0.2,0.1,0.3,0.3,0.3,0.5c0,0,0,0.1,0,0.1c0,3.8,0,7.7,0,11.5c0,0.1,0,0.1,0,0.2c-0.1,0.3-0.3,0.5-0.6,0.5c-0.3,0-0.5-0.3-0.5-0.6
		c0-0.1,0-0.1,0-0.2c0-3.8,0-7.5,0-11.3c0-0.1,0-0.1,0-0.2c0,0-0.1,0-0.1-0.1c-2.1-1.2-4.1-2.4-6.2-3.6c-0.1,0-0.1-0.1-0.2-0.1
		C13.4,1,12.9,0.9,12.4,1c-0.8,0.1-1.4,0.5-1.8,1.3c0,0.1-0.1,0.2-0.1,0.4c0,0,0,0,0,0c0.2,0.1,0.3,0.2,0.5,0.3
		c0.5,0.3,1,0.6,1.4,0.8c1.7,1,3.5,2,5.2,3c0.1,0,0.1,0.1,0.2,0.1c0.1,0.1,0.2,0.2,0.2,0.4c0,0.1,0,0.1,0,0.2c0,2.3,0,4.6,0,6.9
		c0,1.5,0,3.1,0,4.6c0,0.1,0,0.1,0,0.2c0,0.3-0.3,0.5-0.6,0.5c-0.3,0-0.5-0.2-0.6-0.5c0-0.1,0-0.1,0-0.2c0-3.8,0-7.5,0-11.3
		c0-0.1,0-0.1,0-0.2c0,0-0.1,0-0.1-0.1c-1.8-1-3.5-2.1-5.3-3.1c-0.4-0.2-0.8-0.5-1.2-0.7C10,3.4,9.6,3.3,9.1,3.3
		C8.3,3.4,7.7,3.9,7.3,4.6c0,0.1-0.1,0.2-0.1,0.3c0,0,0,0,0,0C7.4,5,7.6,5.1,7.8,5.2c0.5,0.3,1,0.6,1.5,0.9c1.7,1,3.3,1.9,5,2.9
		c0.1,0,0.1,0.1,0.2,0.1c0.2,0.1,0.3,0.3,0.3,0.5c0,0,0,0.1,0,0.1c0,3.8,0,7.7,0,11.5c0,0.1,0,0.1,0,0.2c-0.1,0.3-0.3,0.5-0.6,0.5
		c-0.3,0-0.5-0.3-0.5-0.6c0-0.1,0-0.1,0-0.2c0-3.8,0-7.5,0-11.3c0-0.1,0-0.1,0-0.2c0,0-0.1,0-0.1-0.1C12.3,9,11.1,8.3,9.9,7.6
		C9,7.1,8.1,6.6,7.2,6.1C7.1,6,6.9,5.9,6.8,5.8C6.2,5.6,5.6,5.6,5,5.9C4.6,6,4.4,6.3,4.2,6.6C4,6.9,3.9,7.2,3.9,7.5
		c0,0.1,0,0.2,0,0.3c0,0,0,0.1,0,0.1c0,0,0.1,0,0.1,0.1c0.9,0.5,1.8,0.9,2.6,1.4c1.5,0.8,2.9,1.6,4.4,2.5c0,0,0.1,0,0.1,0.1
		c0,0,0,0,0,0.1c0,0.4,0,0.7,0,1.1c0,0.5,0,1.1,0,1.6c0,1.4,0,2.8,0,4.3c0,1,0,2.1,0,3.1c0,0.5,0,1,0,1.4c0,0.1,0,0.1-0.1,0.2
		c-0.1,0.2-0.3,0.3-0.5,0.3c0,0-0.1,0-0.1,0c-0.1,0-0.2,0-0.2,0c0,0,0,0-0.1,0c-0.1,0-0.2-0.1-0.3-0.1c-0.5-0.3-1-0.5-1.4-0.8
		c-1.8-1-3.7-2-5.5-3c0,0-0.1,0-0.1-0.1c0-4.2,0.1-8.4,0.1-12.7c0.1,0,0.1,0,0.1-0.1c0-0.2,0.1-0.4,0.2-0.6
		c0.2-0.5,0.4-0.9,0.8-1.2c0.7-0.6,1.5-0.9,2.3-0.8c0,0,0.1,0,0.1,0c0-0.1,0.1-0.2,0.1-0.3c0.5-1.5,1.9-2.2,3.2-2.1c0,0,0,0,0.1,0
		c0,0,0-0.1,0-0.1C9.7,2,9.8,1.8,9.9,1.7c0.6-1.1,1.6-1.6,2.5-1.6c0,0,0.1,0,0.1,0C12.6,0,12.7,0,12.8,0z"/>
</svg>
