<?xml version="1.0" encoding="utf-8"?>
<!-- Generator: Adobe Illustrator 25.3.1, SVG Export Plug-In . SVG Version: 6.00 Build 0)  -->
<svg version="1.1" id="Слой_1" xmlns="http://www.w3.org/2000/svg" xmlns:xlink="http://www.w3.org/1999/xlink" x="0px" y="0px"
	 viewBox="0 0 45 45" style="enable-background:new 0 0 45 45;" xml:space="preserve">
<style type="text/css">
	.SVGbox{fill:#FFFFFF;}
</style>
<g id="SVGbox">
	<g>
		<g>
			<path class="SVGbox" d="M39.2,7c-0.2-0.4-0.7-0.6-1.1-0.5c0,0,0,0,0,0L20.9,3.8c-0.2,0-0.4,0-0.6,0.1L6.6,9.2c0,0,0,0,0,0
				c0,0,0,0,0,0c-0.1,0-0.1,0.1-0.2,0.1c0,0,0,0-0.1,0C6.2,9.5,6.1,9.6,6.1,9.7c0,0,0,0,0,0l-5.8,8.5c-0.2,0.3-0.3,0.7-0.2,1.1
				c0.1,0.4,0.4,0.7,0.8,0.8l5,1.4v13.3c0,0.5,0.3,1,0.8,1.2l18.5,6h0c0.1,0,0.2,0,0.3,0c0,0,0,0,0,0l0,0l0,0c0.1,0,0.2,0,0.3-0.1
				c0,0,0.1,0,0.1,0c0,0,0.1,0,0.1-0.1L39.3,34c0.4-0.2,0.6-0.6,0.6-1.1V19.6l4.5-2.3c0.3-0.2,0.5-0.4,0.6-0.8c0.1-0.3,0-0.7-0.2-1
				L39.2,7z M20.8,6.2l13.4,2.1l-8.9,4.4L11.3,10L20.8,6.2z M7.5,11.7l16.1,3.2l-4.7,7.6L3.1,18.1L7.5,11.7z M8.2,33.9V22.1l10.9,3
				c0.1,0,0.2,0,0.3,0c0.4,0,0.7-0.2,1-0.5l4.1-6.5v21.1L8.2,33.9z M37.6,32.2l-11,6.5V19.5l2,4.5c0.1,0.3,0.4,0.5,0.7,0.6
				c0.1,0,0.2,0.1,0.4,0.1c0.2,0,0.3,0,0.5-0.1l7.4-3.8L37.6,32.2L37.6,32.2z M30.2,21.9L27,14.6l10.9-5.4l4.3,6.5L30.2,21.9z"/>
		</g>
	</g>
</g>
</svg>
