<?xml version="1.0" encoding="utf-8"?>
<!-- Generator: Adobe Illustrator 22.1.0, SVG Export Plug-In . SVG Version: 6.00 Build 0)  -->
<svg version="1.1" id="Слой_1" xmlns="http://www.w3.org/2000/svg" xmlns:xlink="http://www.w3.org/1999/xlink" x="0px" y="0px"
	 viewBox="0 0 64 64" style="enable-background:new 0 0 64 64;" xml:space="preserve">
<path style="fill:#AAAFB2;" d="M63.4,38c0.4-1.9,0.6-4,0.6-6s-0.2-4.1-0.6-6h-7.2c-0.6-2.5-1.6-4.8-2.9-6.9l5.1-5.1
	c-1-1.5-2.1-2.8-3.3-4.1l-1.1-1.1c-1.3-1.2-2.6-2.3-4.1-3.3l-5.1,5.1c-2.1-1.3-4.5-2.3-6.9-2.9V0.6C36.1,0.2,34,0,32,0
	s-4.1,0.2-6,0.6v7.2c-2.5,0.6-4.8,1.6-6.9,2.9L14,5.5c-1.5,1-2.8,2.1-4.1,3.3L8.8,9.9c-1.2,1.3-2.3,2.6-3.3,4.1l5.1,5.1
	c-1.3,2.1-2.3,4.5-2.9,6.9H0.6C0.2,27.9,0,30,0,32s0.2,4.1,0.6,6h7.2c0.6,2.5,1.6,4.8,2.9,6.9L5.5,50c1,1.5,2.1,2.8,3.3,4.1l1.1,1.1
	c1.3,1.2,2.6,2.3,4.1,3.3l5.1-5.1c2.1,1.3,4.5,2.3,6.9,2.9v7.2c1.9,0.4,4,0.6,6,0.6s4.1-0.2,6-0.6v-7.2c2.5-0.6,4.8-1.6,6.9-2.9
	l5.1,5.1c1.5-1,2.8-2.1,4.1-3.3l1.1-1.1c1.2-1.3,2.3-2.6,3.3-4.1l-5.1-5.1c1.3-2.1,2.3-4.5,2.9-6.9H63.4z M41.9,33.4
	C41.7,35.1,41,36.7,40,38c-0.6,0.8-1.2,1.4-2,2c-1.3,1-2.9,1.7-4.6,1.9C33,42,32.5,42,32,42s-1,0-1.4-0.1C28.9,41.7,27.3,41,26,40
	c-0.8-0.6-1.4-1.2-2-2c-1-1.3-1.7-2.9-1.9-4.6C22,33,22,32.5,22,32c0-0.5,0-1,0.1-1.4c0.2-1.7,0.9-3.3,1.9-4.6c0.6-0.8,1.2-1.4,2-2
	c1.3-1,2.9-1.7,4.6-1.9C31,22,31.5,22,32,22s1,0,1.4,0.1c1.7,0.2,3.3,0.9,4.6,1.9c0.8,0.6,1.4,1.2,2,2c1,1.3,1.7,2.9,1.9,4.6
	C42,31,42,31.5,42,32C42,32.5,42,33,41.9,33.4z"/>
</svg>
