<?xml version="1.0" encoding="utf-8"?>
<!-- Generator: Adobe Illustrator 25.3.1, SVG Export Plug-In . SVG Version: 6.00 Build 0)  -->
<svg version="1.1" id="Слой_1" xmlns="http://www.w3.org/2000/svg" xmlns:xlink="http://www.w3.org/1999/xlink" x="0px" y="0px"
	 viewBox="0 0 45 45" style="enable-background:new 0 0 45 45;" xml:space="preserve">
<style type="text/css">
	.SVGitem{fill:#FFFFFF;}
</style>
<path class="SVGitem" d="M43.3,29.5L28.8,43.9c-1.3,1.3-3.4,1.4-4.6,0.2L1.1,21c0,0-0.1-0.1-0.1-0.1c-0.2-0.2-0.4-0.5-0.5-0.7
	c0-0.1-0.1-0.1-0.1-0.2L3,17.4l4.5-4.5c0.5,0.4,1.2,0.6,1.9,0.6c1.9,0,3.4-1.5,3.4-3.4c0-0.7-0.2-1.3-0.5-1.8
	c0.1-0.1,0.1-0.2,0.2-0.2L17,3.5L19.5,1c0.1,0,0.1,0,0.2,0.1c0,0,0,0,0,0c0.4,0.2,0.7,0.4,1,0.7c0.1,0.1,0.2,0.2,0.2,0.2l22.7,22.9
	C44.8,26.1,44.7,28.1,43.3,29.5z"/>
<path class="SVGitem" d="M19.7,1.1C19.6,1,19.5,1,19.5,1c-0.3-0.1-0.6-0.2-0.8-0.2c-0.1,0-0.1,0-0.2,0l-16.7,0C1,0.8,0.4,1.4,0.3,2.1
	L0.3,19c0,0.3,0.1,0.6,0.2,0.9c0,0.1,0.1,0.1,0.1,0.2h4.5l12.2,0c1.3,0,2.3-1,2.3-2.3l0.1-12.2L19.7,1.1C19.7,1.1,19.7,1.1,19.7,1.1
	z M9.3,13.5c-0.7,0-1.3-0.2-1.9-0.6c-0.9-0.6-1.6-1.7-1.6-2.9c0-1.1,0.5-2.1,1.4-2.7c0.1-0.1,0.2-0.1,0.2-0.2C7.7,7.1,7.9,7,8.1,6.9
	c0.4-0.1,0.8-0.2,1.2-0.2c1.2,0,2.3,0.6,2.9,1.6c0.3,0.5,0.5,1.1,0.5,1.8C12.7,12,11.2,13.5,9.3,13.5z"/>
<path class="SVGitem" d="M21.1,5.1c-0.4,0.4-0.9,0.5-1.5,0.5c-0.7,0-1.4-0.4-1.9-0.9c-0.3-0.3-0.6-0.8-0.8-1.2c-0.3-0.8-0.2-1.7,0.3-2.2
	c0.3-0.3,0.7-0.5,1.1-0.5c0.1,0,0.2,0,0.2,0c0.3,0,0.6,0.1,0.8,0.2c0.1,0,0.2,0.1,0.2,0.1c0.3,0.2,0.7,0.4,1,0.7
	C21.7,2.8,21.9,4.3,21.1,5.1z"/>
<path class="SVGitem" d="M4.6,21.5c-0.4,0.4-0.9,0.5-1.5,0.5c-0.7,0-1.4-0.4-1.9-0.9c-0.3-0.3-0.5-0.6-0.7-1c0-0.1-0.1-0.1-0.1-0.2
	c-0.1-0.3-0.2-0.6-0.2-0.9c0-0.5,0.2-1,0.5-1.3c0.3-0.3,0.7-0.5,1.1-0.5c0.1,0,0.2,0,0.2,0c0.3,0,0.6,0.1,0.8,0.2
	c0.1,0,0.2,0.1,0.2,0.1c0.3,0.2,0.7,0.4,1,0.7c0.6,0.6,0.9,1.3,0.9,1.9C5.1,20.7,5,21.2,4.6,21.5z"/>
<path class="SVGitem" d="M8.1,6.9C7.9,7,7.7,7.1,7.5,7.2C7.7,7.1,7.9,7,8.1,6.9z"/>
</svg>
