<?xml version="1.0" encoding="utf-8"?>
<!-- Generator: Adobe Illustrator 25.3.1, SVG Export Plug-In . SVG Version: 6.00 Build 0)  -->
<svg version="1.1" id="Слой_1" xmlns="http://www.w3.org/2000/svg" xmlns:xlink="http://www.w3.org/1999/xlink" x="0px" y="0px"
	 viewBox="0 0 45 45" style="enable-background:new 0 0 45 45;" xml:space="preserve">
<style type="text/css">
	.SVGmoney{fill:#FFFFFF;}
</style>
<g id="layer1" transform="translate(0,-1022.3622)">
	<path id="path21823-7" class="SVGmoney" d="M19.8,1022.4c-7.9,0-14.4,2.9-14.4,6.4c0,0.2,0,0.4,0.1,0.6H5.4v4.3c-1.2,0.9-1.9,2-1.9,3.1
		c0,0.2,0,0.4,0.1,0.6H3.4v4.8c0,0.1,0,0.2-0.1,0.3c-1.1,0.9-1.7,1.8-1.7,2.9c0,0.2,0,0.4,0.1,0.6H1.6v4.8c-0.1,0.2-0.1,0.5-0.1,0.7
		c0,0.4,0.1,0.7,0.3,1.1c-1.1,0.9-1.7,1.9-1.7,3c0,0.2,0,0.4,0.1,0.6H0.1v4.8c-0.1,0.2-0.1,0.5-0.1,0.7c0,3.2,6.4,5.8,14.4,5.8
		c4.7,0,8.8-0.9,11.4-2.3c1.7,0.9,3.7,1.5,5.8,1.5c6.2,0,11.4-4.7,12.6-10.9c0,0,0,0,0-0.1c0.5-1.5,0.9-3.1,0.9-4.7
		c0-7.1-5.4-12.8-12-12.8c-0.3,0-0.5,0-0.8,0.1v-0.4c1-0.7,1.6-1.4,1.8-2.2h0.1v-6.1H34c0-0.2,0.1-0.4,0.1-0.6
		C34,1025.2,27.7,1022.4,19.8,1022.4L19.8,1022.4z M19.8,1023.5c6.5,0,11.7,2.3,11.7,5.2c0,2.9-5.2,5.2-11.7,5.2
		c-6.5,0-11.8-2.3-11.8-5.2C7.9,1025.8,13.3,1023.5,19.8,1023.5z M6,1036.5c1.9,2.3,7.2,4.1,13.6,4.1c2.6,0,5.1-0.3,7.2-0.8
		c-0.3,0.2-0.6,0.4-0.9,0.6c-0.1,0.1-0.3,0.2-0.4,0.3c-2.1,0.8-4.7,1.3-7.6,1.3c-6.5,0-11.8-2.3-11.8-5.2
		C6,1036.7,6,1036.6,6,1036.5z M33,1039.8c5.8,0,10.4,4.9,10.4,11.1S38.7,1062,33,1062c-5.8,0-10.5-5-10.5-11.2
		S27.2,1039.8,33,1039.8z M4.3,1044.9c2.1,2.2,7.3,3.7,13.4,3.7c0.5,0,1.1,0,1.6-0.1c-0.2,0.6-0.3,1.2-0.4,1.8
		c-0.9,0.1-1.9,0.2-2.9,0.2c-6.5,0-11.8-2.3-11.8-5.2C4.2,1045.2,4.2,1045.1,4.3,1044.9L4.3,1044.9z M3.1,1054.1
		c2.4,1.9,7.2,3.2,12.8,3.2c1.2,0,2.3-0.1,3.4-0.2c0.3,1,0.8,1.9,1.3,2.8c-1.8,0.5-3.8,0.8-6,0.8c-6.5,0-11.8-2.3-11.8-5.2
		C2.7,1055,2.8,1054.5,3.1,1054.1L3.1,1054.1z"/>
</g>
</svg>
