<?xml version="1.0" encoding="utf-8"?>
<!-- Generator: Adobe Illustrator 25.3.1, SVG Export Plug-In . SVG Version: 6.00 Build 0)  -->
<svg version="1.1" id="Слой_1" xmlns="http://www.w3.org/2000/svg" xmlns:xlink="http://www.w3.org/1999/xlink" x="0px" y="0px"
	 viewBox="0 0 20 20" style="enable-background:new 0 0 20 20;" xml:space="preserve">
<style type="text/css">
	.SVGpurlist{fill:#2B3C4C;}
</style>
<g>
	<path class="SVGpurlist" d="M14,10H1c-0.6,0-1,0.4-1,1v0c0,0.6,0.4,1,1,1h13c0.6,0,1-0.4,1-1v0C15,10.4,14.6,10,14,10z"/>
</g>
<g>
	<path class="SVGpurlist" d="M19,15H1c-0.6,0-1,0.4-1,1v0c0,0.6,0.4,1,1,1h18c0.6,0,1-0.4,1-1v0C20,15.4,19.6,15,19,15z"/>
</g>
<g>
	<path class="SVGpurlist" d="M7,5H1C0.4,5,0,5.4,0,6v0c0,0.6,0.4,1,1,1h6c0.6,0,1-0.4,1-1v0C8,5.4,7.6,5,7,5z"/>
</g>
</svg>
