<?xml version="1.0" encoding="utf-8"?>
<!-- Generator: Adobe Illustrator 25.3.1, SVG Export Plug-In . SVG Version: 6.00 Build 0)  -->
<svg version="1.1" id="Слой_1" xmlns="http://www.w3.org/2000/svg" xmlns:xlink="http://www.w3.org/1999/xlink" x="0px" y="0px"
	 viewBox="0 0 45 45" style="enable-background:new 0 0 45 45;" xml:space="preserve">
<style type="text/css">
	.SVGrecipes{fill:#FFFFFF;}
</style>
<g>
	<path class="SVGrecipes" d="M9.5,0C6,0,3.2,2.9,3.2,6.4v32.3C3.2,42.1,6,45,9.5,45h30.1c0.8,0,1.4-0.6,1.4-1.4v-4.9v-4.9V11.3V1.4
		C41,0.6,40.4,0,39.6,0H9.5z M9.5,2.9h28.6v8.5v20.9H9.5c-1.3,0-2.5,0.4-3.5,1.1V6.4C6,4.4,7.6,2.9,9.5,2.9z M38.2,42.1H9.5
		c-1.9,0-3.5-1.6-3.5-3.5s1.6-3.5,3.5-3.5h28.6v2.1H15.7c-0.8,0-1.4,0.6-1.4,1.4c0,0.8,0.6,1.4,1.4,1.4h22.5V42.1L38.2,42.1z"/>
	<path class="SVGrecipes" d="M16.4,20v5.4c0,0.8,0.6,1.4,1.4,1.4h8.6c0.8,0,1.4-0.6,1.4-1.4V20c1.9-0.8,3.2-2.6,3.2-4.7
		c0-2.7-2.1-5-4.8-5.1c-1-1.3-2.4-2-4-2c-1.6,0-3.1,0.8-4,2c-2.7,0.1-4.9,2.4-4.9,5.1C13.2,17.4,14.5,19.3,16.4,20z M18.3,13.1
		c0.1,0,0.2,0,0.3,0c0.6,0.1,1.2-0.2,1.5-0.8c0.4-0.8,1.1-1.3,2-1.3c0.8,0,1.6,0.5,2,1.3c0.3,0.5,0.9,0.9,1.5,0.8c0.1,0,0.2,0,0.3,0
		c1.2,0,2.2,1,2.2,2.2c0,1.1-0.8,2.1-1.9,2.2C25.5,17.6,25,18.3,25,19V24h-5.7v-5l0,0c0-0.8-0.5-1.4-1.3-1.5
		c-1.1-0.1-1.9-1.1-1.9-2.2C16,14.1,17,13.1,18.3,13.1z"/>
</g>
</svg>
