<?xml version="1.0" encoding="utf-8"?>
<!-- Generator: Adobe Illustrator 25.3.1, SVG Export Plug-In . SVG Version: 6.00 Build 0)  -->
<svg version="1.1" id="Слой_1" xmlns="http://www.w3.org/2000/svg" xmlns:xlink="http://www.w3.org/1999/xlink" x="0px" y="0px"
	 viewBox="0 0 20 20" style="enable-background:new 0 0 20 20;" xml:space="preserve">
<g>
	<path style="fill:#2D3E4E;" d="M13.5,4C14.9,4,16,5.1,16,6.5S14.9,9,13.5,9S11,7.9,11,6.5S12.1,4,13.5,4 M13.5,2C11,2,9,4,9,6.5
		s2,4.5,4.5,4.5S18,9,18,6.5S16,2,13.5,2L13.5,2z"/>
</g>
<g>
	<path style="fill:#2D3E4E;" d="M10.8,9.1l-5.5,5.8L10.8,9.1C10.8,9.1,10.8,9.1,10.8,9.1 M10.8,8.1c-0.3,0-0.5,0.1-0.7,0.3l-5.5,5.8
		c-0.4,0.4-0.4,1,0,1.4c0.2,0.2,0.4,0.3,0.7,0.3c0.3,0,0.5-0.1,0.7-0.3l5.5-5.8c0.4-0.4,0.4-1,0-1.4C11.2,8.2,11,8.1,10.8,8.1
		L10.8,8.1z"/>
</g>
</svg>
