<?xml version="1.0" encoding="utf-8"?>
<!-- Generator: Adobe Illustrator 25.3.1, SVG Export Plug-In . SVG Version: 6.00 Build 0)  -->
<svg version="1.1" id="Слой_1" xmlns="http://www.w3.org/2000/svg" xmlns:xlink="http://www.w3.org/1999/xlink" x="0px" y="0px"
	 viewBox="0 0 45 45" style="enable-background:new 0 0 45 45;" xml:space="preserve">
<style type="text/css">
	.SVGgear{fill:#FFFFFF;}
</style>
<g id="Слой_2_1_">
	<path class="SVGgear" d="M44,27c0.2-1.3,0.4-2.7,0.4-4.2c0-1.4-0.1-2.8-0.4-4.2h-5.7c-0.5-1.8-1.2-3.4-2.2-4.9l4-4
		c-1.7-2.2-3.7-4.2-6.1-5.7h0l-4,4.1c-1.2-0.6-2.4-1.1-3.6-1.4V1c-1.3-0.2-2.7-0.4-4.2-0.4c-1.4,0-2.8,0.1-4.2,0.4v5.7
		c-1.5,0.4-3,1-4.3,1.8l-4-4c-2.3,1.6-4.3,3.6-5.9,5.9l4,4c-0.8,1.3-1.4,2.8-1.8,4.3H0.4C0.1,20,0,21.4,0,22.8
		c0,1.4,0.1,2.8,0.4,4.2h5.7c0.3,1.3,0.8,2.5,1.4,3.6l-4.1,4.1c1.5,2.4,3.4,4.4,5.7,6.1l4-4c1.5,1,3.1,1.7,4.9,2.2v5.7
		c1.3,0.2,2.7,0.4,4.2,0.4c1.4,0,2.8-0.1,4.2-0.4v-5.7c1.5-0.4,3-1,4.3-1.8l4,4c2.3-1.6,4.3-3.6,5.9-5.9l-4-4
		c0.8-1.3,1.4-2.8,1.8-4.3C38.3,27,44,27,44,27z M27.7,22.8c0,0.2,0,0.3,0,0.5c0,0.2,0,0.3-0.1,0.5c0,0.2-0.1,0.4-0.1,0.5
		c-0.1,0.2-0.2,0.5-0.3,0.7c-0.1,0.2-0.2,0.5-0.3,0.7c-0.1,0.1-0.2,0.2-0.2,0.3c-0.1,0.1-0.2,0.3-0.3,0.4c-0.2,0.2-0.3,0.3-0.5,0.5
		c-1,0.9-2.3,1.4-3.7,1.4c-0.1,0-0.2,0-0.3,0h0c-0.1,0-0.2,0-0.3,0c-0.2,0-0.3,0-0.4-0.1c-0.1,0-0.1,0-0.2,0c-0.1,0-0.2-0.1-0.4-0.1
		c-0.2,0-0.4-0.1-0.5-0.2c-0.2-0.1-0.3-0.1-0.5-0.2c-0.4-0.2-0.7-0.4-1-0.7c-0.2-0.2-0.3-0.3-0.5-0.5c-0.1-0.1-0.2-0.2-0.3-0.3
		c-0.1-0.2-0.2-0.3-0.3-0.5c-0.1-0.2-0.2-0.3-0.3-0.5c0-0.1,0-0.1-0.1-0.2c-0.1-0.2-0.1-0.3-0.2-0.5c-0.1-0.2-0.1-0.4-0.2-0.6
		c0-0.1,0-0.2-0.1-0.3c0-0.1,0-0.2,0-0.3c0-0.1,0-0.2,0-0.3c0-0.2,0-0.4,0-0.6c0-0.1,0-0.2,0-0.3c0,0,0,0,0,0c0-0.1,0-0.2,0.1-0.2
		c0-0.1,0.1-0.3,0.1-0.4c0-0.1,0.1-0.2,0.1-0.3c0.1-0.3,0.2-0.5,0.3-0.7c0.1-0.2,0.2-0.4,0.4-0.6c0.1-0.2,0.2-0.3,0.3-0.4
		c0.2-0.2,0.3-0.3,0.5-0.5c0.1-0.1,0.3-0.2,0.4-0.3c0.2-0.2,0.4-0.3,0.6-0.4c0.2-0.1,0.5-0.2,0.7-0.3c0.1,0,0.2-0.1,0.3-0.1
		c0.1,0,0.2-0.1,0.4-0.1c0.1,0,0.2,0,0.2-0.1c0,0,0,0,0,0c0.1,0,0.2,0,0.3,0c0.2,0,0.4,0,0.6,0c0.1,0,0.2,0,0.3,0c0.1,0,0.2,0,0.3,0
		c0.1,0,0.2,0,0.3,0.1c0.2,0,0.4,0.1,0.6,0.2c0.2,0.1,0.3,0.1,0.5,0.2c0.1,0,0.1,0,0.2,0.1c0.2,0.1,0.3,0.2,0.5,0.3
		c0.2,0.1,0.4,0.2,0.5,0.3c0.1,0.1,0.2,0.2,0.3,0.3c0.2,0.2,0.3,0.3,0.5,0.5c0.1,0.1,0.2,0.2,0.3,0.4c0.1,0.1,0.1,0.2,0.2,0.3
		c0.1,0.1,0.2,0.2,0.2,0.4c0,0.1,0.1,0.2,0.1,0.2c0,0.1,0.1,0.2,0.1,0.2c0.1,0.2,0.2,0.3,0.2,0.5c0,0.1,0.1,0.2,0.1,0.4
		c0,0.1,0,0.1,0,0.2c0,0.1,0.1,0.3,0.1,0.4c0,0.1,0,0.2,0,0.3C27.7,22.6,27.7,22.7,27.7,22.8z"/>
	<path class="SVGgear" d="M38.3,18.7c-0.5-1.8-1.2-3.4-2.2-4.9c-1.5-2.4-3.7-4.3-6.1-5.6c-1.2-0.6-2.4-1.1-3.6-1.4
		c-1.3-0.3-2.7-0.5-4.2-0.5c-1.4,0-2.8,0.2-4.2,0.5c-1.5,0.4-3,1-4.3,1.8c-2.4,1.4-4.4,3.5-5.9,5.9c-0.8,1.3-1.4,2.8-1.8,4.3
		c-0.3,1.3-0.5,2.7-0.5,4.2c0,1.4,0.2,2.8,0.5,4.2c0.3,1.3,0.8,2.5,1.4,3.6c1.3,2.5,3.3,4.6,5.6,6.2c1.5,1,3.1,1.7,4.9,2.2
		c1.3,0.3,2.7,0.5,4.2,0.5c1.4,0,2.8-0.2,4.2-0.5c1.5-0.4,3-1,4.3-1.8c2.4-1.4,4.4-3.5,5.9-5.9c0.8-1.3,1.4-2.8,1.8-4.3
		c0.3-1.3,0.5-2.7,0.5-4.2C38.8,21.4,38.6,20,38.3,18.7z M21.5,28.3c-0.2,0-0.3,0-0.4-0.1c-0.1,0-0.1,0-0.2,0
		c-0.1,0-0.2-0.1-0.4-0.1c-0.2,0-0.4-0.1-0.5-0.2c-0.2-0.1-0.3-0.1-0.5-0.2c-0.4-0.2-0.7-0.4-1-0.7c-0.2-0.2-0.3-0.3-0.5-0.5
		c-0.1-0.1-0.2-0.2-0.3-0.3c-0.1-0.2-0.2-0.3-0.3-0.5c-0.1-0.2-0.2-0.3-0.3-0.5c0-0.1,0-0.1-0.1-0.2c-0.1-0.2-0.1-0.3-0.2-0.5
		c-0.1-0.2-0.1-0.4-0.2-0.6c0-0.1,0-0.2-0.1-0.3c0-0.1,0-0.2,0-0.3c0-0.1,0-0.2,0-0.3c0-0.2,0-0.4,0-0.6c0-0.1,0-0.2,0-0.3
		c0,0,0,0,0,0c0-0.1,0-0.2,0.1-0.2c0-0.1,0.1-0.3,0.1-0.4c0-0.1,0.1-0.2,0.1-0.3c0.1-0.3,0.2-0.5,0.3-0.7c0.1-0.2,0.2-0.4,0.4-0.6
		c0.1-0.2,0.2-0.3,0.3-0.4c0.2-0.2,0.3-0.3,0.5-0.5c0.1-0.1,0.3-0.2,0.4-0.3c0.2-0.2,0.4-0.3,0.6-0.4c0.2-0.1,0.5-0.2,0.7-0.3
		c0.1,0,0.2-0.1,0.3-0.1c0.1,0,0.2-0.1,0.4-0.1c0.1,0,0.2,0,0.2-0.1c0,0,0,0,0,0c0.1,0,0.2,0,0.3,0c0.2,0,0.4,0,0.6,0
		c0.1,0,0.2,0,0.3,0c0.1,0,0.2,0,0.3,0c0.1,0,0.2,0,0.3,0.1c0.2,0,0.4,0.1,0.6,0.2c0.2,0.1,0.3,0.1,0.5,0.2c0.1,0,0.1,0,0.2,0.1
		c0.2,0.1,0.3,0.2,0.5,0.3c0.2,0.1,0.4,0.2,0.5,0.3c0.1,0.1,0.2,0.2,0.3,0.3c0.2,0.2,0.3,0.3,0.5,0.5c0.1,0.1,0.2,0.2,0.3,0.4
		c0.1,0.1,0.1,0.2,0.2,0.3c0.1,0.1,0.2,0.2,0.2,0.4c0,0.1,0.1,0.2,0.1,0.2c0,0.1,0.1,0.2,0.1,0.2c0.1,0.2,0.2,0.3,0.2,0.5
		c0,0.1,0.1,0.2,0.1,0.4c0,0.1,0,0.1,0,0.2c0,0.1,0.1,0.3,0.1,0.4c0,0.1,0,0.2,0,0.3c0,0.1,0,0.2,0,0.3c0,0.2,0,0.3,0,0.5
		c0,0.2,0,0.3-0.1,0.5c0,0.2-0.1,0.4-0.1,0.5c-0.1,0.2-0.2,0.5-0.3,0.7c-0.1,0.2-0.2,0.5-0.3,0.7c-0.1,0.1-0.2,0.2-0.2,0.3
		c-0.1,0.1-0.2,0.3-0.3,0.4c-0.2,0.2-0.3,0.3-0.5,0.5c-1,0.9-2.3,1.4-3.7,1.4c-0.1,0-0.2,0-0.3,0h0C21.7,28.4,21.6,28.3,21.5,28.3z"
		/>
	<path class="SVGgear" d="M26.3,26.5v18.1C25,44.9,23.6,45,22.2,45c-1.4,0-2.8-0.1-4.2-0.4V26.5c0.2,0.2,0.3,0.3,0.5,0.5
		c0.3,0.3,0.7,0.5,1,0.7c0.2,0.1,0.3,0.2,0.5,0.2c0.2,0.1,0.3,0.2,0.5,0.2c0.1,0,0.2,0.1,0.4,0.1c0.1,0,0.1,0,0.2,0
		c0.1,0,0.3,0.1,0.4,0.1c0.1,0,0.2,0,0.3,0h0c0.1,0,0.2,0,0.3,0c1.4,0,2.7-0.5,3.7-1.4C26,26.8,26.2,26.7,26.3,26.5z"/>
	<path class="SVGgear" d="M26.3,1v18.1c-0.2-0.2-0.3-0.3-0.5-0.5c-0.1-0.1-0.2-0.2-0.3-0.3c-0.2-0.1-0.3-0.2-0.5-0.3
		c-0.2-0.1-0.3-0.2-0.5-0.3c-0.1,0-0.1,0-0.2-0.1c-0.2-0.1-0.3-0.1-0.5-0.2c-0.2-0.1-0.4-0.1-0.6-0.2c-0.1,0-0.2,0-0.3-0.1
		c-0.1,0-0.2,0-0.3,0c-0.1,0-0.2,0-0.3,0c-0.2,0-0.4,0-0.6,0c-0.1,0-0.2,0-0.3,0c0,0,0,0,0,0c-0.1,0-0.2,0-0.2,0.1
		c-0.1,0-0.3,0.1-0.4,0.1c-0.1,0-0.2,0.1-0.3,0.1c-0.3,0.1-0.5,0.2-0.7,0.3c-0.2,0.1-0.4,0.2-0.6,0.4c-0.2,0.1-0.3,0.2-0.4,0.3
		c-0.2,0.2-0.3,0.3-0.5,0.5V1c1.3-0.2,2.7-0.4,4.2-0.4C23.6,0.7,25,0.8,26.3,1z"/>
	<path class="SVGgear" d="M18,26.5c0.2,0.2,0.3,0.3,0.5,0.5H0.4C0.1,25.6,0,24.2,0,22.8c0-1.4,0.1-2.8,0.4-4.2h18.1
		c-0.2,0.2-0.3,0.3-0.5,0.5c-0.1,0.1-0.2,0.3-0.3,0.4c-0.2,0.2-0.3,0.4-0.4,0.6C17.2,20.5,17,20.7,17,21c0,0.1-0.1,0.2-0.1,0.3
		c0,0.1-0.1,0.2-0.1,0.4c0,0.1,0,0.2-0.1,0.2c0,0,0,0,0,0c0,0.1,0,0.2,0,0.3c0,0.2,0,0.4,0,0.6c0,0.1,0,0.2,0,0.3c0,0.1,0,0.2,0,0.3
		c0,0.1,0,0.2,0.1,0.3c0,0.2,0.1,0.4,0.2,0.6c0.1,0.2,0.1,0.3,0.2,0.5c0,0.1,0,0.1,0.1,0.2c0.1,0.2,0.2,0.3,0.3,0.5
		c0.1,0.2,0.2,0.4,0.3,0.5C17.8,26.3,17.9,26.4,18,26.5z"/>
	<path class="SVGgear" d="M44.3,22.8c0,1.4-0.1,2.8-0.4,4.2H25.8c0.2-0.2,0.3-0.3,0.5-0.5c0.1-0.1,0.2-0.2,0.3-0.4
		c0.1-0.1,0.2-0.2,0.2-0.3c0.1-0.2,0.2-0.4,0.3-0.7c0.1-0.2,0.2-0.5,0.3-0.7c0.1-0.2,0.1-0.4,0.1-0.5c0-0.2,0.1-0.3,0.1-0.5
		s0-0.3,0-0.5c0-0.1,0-0.2,0-0.3c0-0.1,0-0.2,0-0.3c0-0.2,0-0.3-0.1-0.4c0-0.1,0-0.1,0-0.2c0-0.1-0.1-0.2-0.1-0.4
		c0-0.2-0.1-0.4-0.2-0.5c0-0.1-0.1-0.2-0.1-0.2c0-0.1-0.1-0.2-0.1-0.2c-0.1-0.1-0.1-0.2-0.2-0.4c-0.1-0.1-0.1-0.2-0.2-0.3
		c-0.1-0.1-0.2-0.3-0.3-0.4c-0.2-0.2-0.3-0.3-0.5-0.5H44C44.2,20,44.3,21.4,44.3,22.8z"/>
	<path class="SVGgear" d="M22.5,17.3c-0.1,0-0.2,0-0.3,0c-0.2,0-0.4,0-0.6,0c-0.1,0-0.2,0-0.3,0c0,0,0,0,0,0c-0.1,0-0.2,0-0.2,0.1
		c-0.1,0-0.3,0.1-0.4,0.1c-0.1,0-0.2,0.1-0.3,0.1c-0.3,0.1-0.5,0.2-0.7,0.3c-0.2,0.1-0.4,0.2-0.6,0.4c-0.2,0.1-0.3,0.2-0.4,0.3
		c-0.2,0.2-0.3,0.3-0.5,0.5c-0.1,0.1-0.2,0.3-0.3,0.4c-0.2,0.2-0.3,0.4-0.4,0.6C17.2,20.5,17,20.7,17,21c0,0.1-0.1,0.2-0.1,0.3
		c0,0.1-0.1,0.2-0.1,0.4c0,0.1,0,0.2-0.1,0.2c0,0,0,0,0,0c0,0.1,0,0.2,0,0.3c0,0.2,0,0.4,0,0.6c0,0.1,0,0.2,0,0.3L3.8,10.4
		c1.6-2.3,3.6-4.3,5.9-5.9l4,4l1,1l3.3,3.3L22.5,17.3z"/>
	<path class="SVGgear" d="M40.5,35.3c-1.6,2.3-3.6,4.3-5.9,5.9L21.8,28.4h0c0.1,0,0.2,0,0.3,0c1.4,0,2.7-0.5,3.7-1.4
		c0.2-0.2,0.3-0.3,0.5-0.5c0.1-0.1,0.2-0.2,0.3-0.4c0.1-0.1,0.2-0.2,0.2-0.3c0.1-0.2,0.2-0.4,0.3-0.7c0.1-0.2,0.2-0.5,0.3-0.7
		c0.1-0.2,0.1-0.4,0.1-0.5c0-0.2,0.1-0.3,0.1-0.5s0-0.3,0-0.5c0-0.1,0-0.2,0-0.3l4.5,4.5l4.3,4.3L40.5,35.3z"/>
	<path class="SVGgear" d="M21.5,28.3L18,31.9l-3.9,3.9l-1,1l-4,4c-2.2-1.7-4.2-3.7-5.7-6.1l4.1-4.1l8.3-8.3l1.1-1.1
		c0,0.1-0.1,0.2-0.1,0.4c0,0.1,0,0.2-0.1,0.2c0,0,0,0,0,0c0,0.1,0,0.2,0,0.3c0,0.2,0,0.4,0,0.6c0,0.1,0,0.2,0,0.3c0,0.1,0,0.2,0,0.3
		c0,0.1,0,0.2,0.1,0.3c0,0.2,0.1,0.4,0.2,0.6c0.1,0.2,0.1,0.3,0.2,0.5c0,0.1,0,0.1,0.1,0.2c0.1,0.2,0.2,0.3,0.3,0.5
		c0.1,0.2,0.2,0.4,0.3,0.5c0.1,0.1,0.2,0.2,0.3,0.3c0.2,0.2,0.3,0.3,0.5,0.5c0.3,0.3,0.7,0.5,1,0.7c0.2,0.1,0.3,0.2,0.5,0.2
		c0.2,0.1,0.3,0.2,0.5,0.2c0.1,0,0.2,0.1,0.4,0.1c0.1,0,0.1,0,0.2,0C21.2,28.3,21.4,28.3,21.5,28.3z"/>
	<path class="SVGgear" d="M40.1,9.8l-8.9,8.9l-3.5,3.5c0-0.2,0-0.3-0.1-0.4c0-0.1,0-0.1,0-0.2c0-0.1-0.1-0.2-0.1-0.4
		c0-0.2-0.1-0.4-0.2-0.5c0-0.1-0.1-0.2-0.1-0.2c0-0.1-0.1-0.2-0.1-0.2c-0.1-0.1-0.1-0.2-0.2-0.4c-0.1-0.1-0.1-0.2-0.2-0.3
		c-0.1-0.1-0.2-0.3-0.3-0.4c-0.2-0.2-0.3-0.3-0.5-0.5c-0.1-0.1-0.2-0.2-0.3-0.3c-0.2-0.1-0.3-0.2-0.5-0.3c-0.2-0.1-0.3-0.2-0.5-0.3
		c-0.1,0-0.1,0-0.2-0.1c-0.2-0.1-0.3-0.1-0.5-0.2c-0.2-0.1-0.4-0.1-0.6-0.2c-0.1,0-0.2,0-0.3-0.1c-0.1,0-0.2,0-0.3,0
		c-0.1,0-0.2,0-0.3,0c-0.2,0-0.4,0-0.6,0c-0.1,0-0.2,0-0.3,0c0,0,0,0,0,0c-0.1,0-0.2,0-0.2,0.1c-0.1,0-0.3,0.1-0.4,0.1l1.1-1.1
		l4.7-4.7l2.6-2.6l1-1l4-4.1h0C36.4,5.6,38.4,7.5,40.1,9.8z"/>
</g>
</svg>
