<svg version="1.1" xmlns="http://www.w3.org/2000/svg" viewBox="0 0 64 64" width="24" height="24">
	<path style="fill:#AAAFB2;" d="M60,36.1c-0.3,4.7-1.7,9-3.9,12.8c-5.2,9-14.9,15-26,15C13.5,64,0,50.5,0,34c0-11.1,6-20.8,15-26c3.8-2.2,8.2-3.6,12.8-3.9C29.1,4.3,30,5.4,30,6.7v24.4c0,1.6,1.3,2.8,2.8,2.8h24.4C58.6,34,59.7,34.9,60,36.1z"/>
	<path style="fill:none;stroke:#AAAFB2;stroke-width:4;stroke-miterlimit:10;" d="M62,27c-0.1,0.2-0.2,0.4-0.4,0.6C60.9,28,60.1,28,59.3,28c-6.6,0-13.3,0-19.9,0c-0.9,0-1.8,0-2.5-0.6c-0.8-0.7-0.9-2-0.9-3.1c0-2.3,0-4.6,0-6.9c0-2.3,0-4.6,0-6.9c0-1.2,0-2.3,0-3.5c0-1.1-0.1-2.2,0-3.3c0-0.3,0-0.7,0.2-1c0.2-0.3,0.5-0.6,0.8-0.7c0.7-0.2,1.4-0.1,2,0c1.3,0.3,2.7,0.6,4,1.1C48,4.9,52.5,8,55.8,12c3.3,4.1,5.5,9.1,6.1,14.3C62,26.5,62,26.7,62,27C62,26.9,62,27,62,27z"/>
</svg>
