<?xml version="1.0" encoding="utf-8"?>
<!-- Generator: Adobe Illustrator 25.3.1, SVG Export Plug-In . SVG Version: 6.00 Build 0)  -->
<svg version="1.1" id="Слой_1" xmlns="http://www.w3.org/2000/svg" xmlns:xlink="http://www.w3.org/1999/xlink" x="0px" y="0px"
	 viewBox="0 0 45 45" style="enable-background:new 0 0 45 45;" xml:space="preserve">
<style type="text/css">
	.SVGstats{fill:#FFFFFF;fill-opacity:0;}
	.SVGstats2{fill:#FFFFFF;}
</style>
<g id="Layer_2">
	<g id="pie-chart-2">
		<g id="pie-chart-2-2">
			<rect x="0.2" y="0" class="SVGstats" width="44.7" height="44.7"/>
			<path class="SVGstats2" d="M27.2,19.2h12.5c0.9,0,1.5-0.7,1.5-1.5c0-7.6-6.3-14-14-14c-0.9,0-1.5,0.7-1.5,1.5v12.5
				C25.7,18.6,26.2,19.2,27.2,19.2z M28.6,6.9c4.8,0.7,8.6,4.5,9.1,9.1h-9.1C28.6,16,28.6,6.9,28.6,6.9z"/>
			<path class="SVGstats2" d="M39.4,22.3H24.4c-0.9,0-1.7-0.7-1.7-1.7V5.4c-0.2-0.9-0.9-1.7-1.9-1.7h-0.2C10.4,4.8,3,14,4.1,24.2
				s10.2,17.7,20.5,16.6c8.7-0.9,15.6-7.8,16.6-16.6C41.1,23.3,40.6,22.3,39.4,22.3L39.4,22.3z"/>
		</g>
	</g>
</g>
</svg>
