<?xml version="1.0" encoding="utf-8"?>
<svg version="1.1" id="Слой_1" xmlns="http://www.w3.org/2000/svg" xmlns:xlink="http://www.w3.org/1999/xlink" x="0px" y="0px"
	 viewBox="0 0 16 16" style="enable-background:new 0 0 16 16;" xml:space="preserve">
	<path style="fill:#AAAFB2;" d="M8,2.1c0.1,0,0.4,0.2,0.7,0.7l5.6,9.8c0.3,0.5,0.3,0.8,0.2,1c-0.1,0.1-0.4,0.3-1,0.3h-11
		c-0.5,0-0.9-0.1-1-0.3c-0.1-0.1,0-0.5,0.2-1l5.6-9.8C7.6,2.3,7.9,2.1,8,2.1 M8,0.6c-0.7,0-1.4,0.5-2,1.4l-5.6,9.8
		c-1.1,1.9-0.2,3.5,2,3.5h11c2.2,0,3.1-1.6,2-3.5L10,2.1C9.4,1.1,8.7,0.6,8,0.6L8,0.6z"/>
<ellipse style="fill:none;stroke:#AAAFB2;stroke-width:0.75;stroke-miterlimit:10;" cx="8" cy="12.2" rx="0.4" ry="0.4"/>
<path style="fill:#AAAFB2;" d="M8,10.7L8,10.7c-0.5,0-0.8-0.3-0.8-0.7V6.2c0-0.4,0.3-0.7,0.7-0.7H8c0.4,0,0.7,0.3,0.7,0.7v3.7
	C8.8,10.3,8.4,10.7,8,10.7z"/>
</svg>
